<svg width="389" height="389" viewBox="0 0 389 389" fill="none" xmlns="http://www.w3.org/2000/svg">
<path fill-rule="evenodd" clip-rule="evenodd" d="M255.09 105.375C239.674 105.375 227.177 117.872 227.177 133.288C227.177 148.704 239.674 161.201 255.09 161.201C270.506 161.201 283.003 148.704 283.003 133.288C283.003 117.872 270.506 105.375 255.09 105.375ZM201.801 133.288C201.801 103.858 225.659 79.9998 255.09 79.9998C284.52 79.9998 308.378 103.858 308.378 133.288C308.378 162.719 284.52 186.577 255.09 186.577C225.659 186.577 201.801 162.719 201.801 133.288Z" fill="#3A46BE"/>
<path fill-rule="evenodd" clip-rule="evenodd" d="M133.289 105.376C117.873 105.376 105.376 117.873 105.376 133.289C105.376 148.705 117.873 161.202 133.289 161.202C148.705 161.202 161.202 148.705 161.202 133.289C161.202 117.873 148.705 105.376 133.289 105.376ZM80 133.289C80 103.858 103.858 80 133.289 80C162.719 80 186.577 103.858 186.577 133.289C186.577 162.719 162.719 186.577 133.289 186.577C103.858 186.577 80 162.719 80 133.289Z" fill="#3A46BE"/>
<path fill-rule="evenodd" clip-rule="evenodd" d="M255.09 227.177C239.674 227.177 227.177 239.674 227.177 255.09C227.177 270.506 239.674 283.003 255.09 283.003C270.506 283.003 283.003 270.506 283.003 255.09C283.003 239.674 270.506 227.177 255.09 227.177ZM201.801 255.09C201.801 225.659 225.659 201.801 255.09 201.801C284.52 201.801 308.378 225.659 308.378 255.09C308.378 284.52 284.52 308.378 255.09 308.378C225.659 308.378 201.801 284.52 201.801 255.09Z" fill="#3A46BE"/>
</svg>
